<mxfile host="app.diagrams.net" modified="2023-03-30T10:16:37.229Z" agent="Mozilla/5.0 (Windows NT 10.0; Win64; x64) AppleWebKit/537.36 (KHTML, like Gecko) Chrome/108.0.0.0 YaBrowser/23.1.5.708 Yowser/2.5 Safari/537.36" etag="GqBhPZy-A5Abtz6sinKG" version="21.1.2" type="google">
  <diagram name="Страница 1" id="GQvtTUdMajU5W8k_Eyvr">
    <mxGraphModel grid="1" page="1" gridSize="10" guides="1" tooltips="1" connect="1" arrows="1" fold="1" pageScale="1" pageWidth="827" pageHeight="1169" math="0" shadow="0">
      <root>
        <mxCell id="0" />
        <mxCell id="1" parent="0" />
        <mxCell id="QWjCUrICDvg6yizu2Og_-1" value="&lt;span style=&quot;text-align: center&quot;&gt;7:Ввести логин&lt;/span&gt;&lt;span style=&quot;text-align: center&quot;&gt;()&lt;/span&gt;" style="text;whiteSpace=wrap;html=1;" vertex="1" parent="1">
          <mxGeometry x="280" y="235" width="110" height="20" as="geometry" />
        </mxCell>
        <mxCell id="QWjCUrICDvg6yizu2Og_-2" value="&lt;span&gt;6:Создание аккаунта&lt;/span&gt;&lt;span style=&quot;text-align: center&quot;&gt;()&lt;/span&gt;" style="text;html=1;align=left;verticalAlign=middle;resizable=0;points=[];autosize=1;strokeColor=none;fillColor=none;" vertex="1" parent="1">
          <mxGeometry x="295" y="453" width="140" height="20" as="geometry" />
        </mxCell>
        <mxCell id="QWjCUrICDvg6yizu2Og_-3" value="1:Переход на сайт()" style="text;html=1;align=center;verticalAlign=middle;resizable=0;points=[];autosize=1;strokeColor=none;fillColor=none;" vertex="1" parent="1">
          <mxGeometry x="580" y="490" width="130" height="20" as="geometry" />
        </mxCell>
        <mxCell id="QWjCUrICDvg6yizu2Og_-4" style="edgeStyle=orthogonalEdgeStyle;rounded=0;orthogonalLoop=1;jettySize=auto;html=1;exitX=0.588;exitY=0.988;exitDx=0;exitDy=0;exitPerimeter=0;entryX=0.596;entryY=-0.025;entryDx=0;entryDy=0;entryPerimeter=0;" edge="1" parent="1" source="QWjCUrICDvg6yizu2Og_-23" target="QWjCUrICDvg6yizu2Og_-23">
          <mxGeometry relative="1" as="geometry">
            <mxPoint x="225.39999999999998" y="390.55000000000007" as="sourcePoint" />
            <mxPoint x="224.9999999999999" y="359.4599999999999" as="targetPoint" />
            <Array as="points">
              <mxPoint x="249" y="420" />
              <mxPoint x="175" y="420" />
              <mxPoint x="175" y="330" />
              <mxPoint x="250" y="330" />
            </Array>
          </mxGeometry>
        </mxCell>
        <mxCell id="QWjCUrICDvg6yizu2Og_-5" value="5:Проверка &lt;br&gt;пользователя()" style="text;html=1;align=center;verticalAlign=middle;resizable=0;points=[];autosize=1;strokeColor=none;fillColor=none;" vertex="1" parent="1">
          <mxGeometry x="80" y="360" width="100" height="30" as="geometry" />
        </mxCell>
        <mxCell id="QWjCUrICDvg6yizu2Og_-6" value="9:Проверка&lt;br&gt;логина и пароля()" style="text;html=1;align=center;verticalAlign=middle;resizable=0;points=[];autosize=1;strokeColor=none;fillColor=none;" vertex="1" parent="1">
          <mxGeometry x="85" y="180" width="110" height="30" as="geometry" />
        </mxCell>
        <mxCell id="QWjCUrICDvg6yizu2Og_-7" value="2:Прикрепить необходимые документы&lt;span style=&quot;text-align: center&quot;&gt;()&lt;/span&gt;" style="text;whiteSpace=wrap;html=1;" vertex="1" parent="1">
          <mxGeometry x="295" y="405" width="240" height="30" as="geometry" />
        </mxCell>
        <mxCell id="QWjCUrICDvg6yizu2Og_-8" value="&lt;span style=&quot;color: rgb(0 , 0 , 0) ; font-family: &amp;#34;helvetica&amp;#34; ; font-size: 12px ; font-style: normal ; font-weight: 400 ; letter-spacing: normal ; text-align: center ; text-indent: 0px ; text-transform: none ; word-spacing: 0px ; background-color: rgb(248 , 249 , 250) ; display: inline ; float: none&quot;&gt;3:Заполнить информацию о себе&lt;/span&gt;&lt;span style=&quot;text-align: center&quot;&gt;()&lt;/span&gt;" style="text;whiteSpace=wrap;html=1;" vertex="1" parent="1">
          <mxGeometry x="295" y="420" width="200" height="30" as="geometry" />
        </mxCell>
        <mxCell id="QWjCUrICDvg6yizu2Og_-9" value="&lt;span style=&quot;color: rgb(0 , 0 , 0) ; font-family: &amp;#34;helvetica&amp;#34; ; font-size: 12px ; font-style: normal ; font-weight: 400 ; letter-spacing: normal ; text-align: center ; text-indent: 0px ; text-transform: none ; word-spacing: 0px ; background-color: rgb(248 , 249 , 250) ; display: inline ; float: none&quot;&gt;8:Ввести пароль&lt;/span&gt;&lt;span style=&quot;text-align: center&quot;&gt;()&lt;/span&gt;" style="text;whiteSpace=wrap;html=1;" vertex="1" parent="1">
          <mxGeometry x="280" y="250" width="110" height="30" as="geometry" />
        </mxCell>
        <mxCell id="QWjCUrICDvg6yizu2Og_-10" value="&lt;span style=&quot;color: rgb(0 , 0 , 0) ; font-family: &amp;#34;helvetica&amp;#34; ; font-size: 12px ; font-style: normal ; font-weight: 400 ; letter-spacing: normal ; text-align: center ; text-indent: 0px ; text-transform: none ; word-spacing: 0px ; background-color: rgb(248 , 249 , 250) ; display: inline ; float: none&quot;&gt;10:Восстановить аккаунт&lt;/span&gt;&lt;span style=&quot;text-align: center&quot;&gt;()&lt;/span&gt;" style="text;whiteSpace=wrap;html=1;" vertex="1" parent="1">
          <mxGeometry x="280" y="265" width="155" height="30" as="geometry" />
        </mxCell>
        <mxCell id="QWjCUrICDvg6yizu2Og_-11" value="&lt;span style=&quot;color: rgb(0 , 0 , 0) ; font-family: &amp;#34;helvetica&amp;#34; ; font-size: 12px ; font-style: normal ; font-weight: 400 ; letter-spacing: normal ; text-align: center ; text-indent: 0px ; text-transform: none ; word-spacing: 0px ; background-color: rgb(248 , 249 , 250) ; display: inline ; float: none&quot;&gt;11:Войти в аккаунт&lt;/span&gt;&lt;span style=&quot;text-align: center&quot;&gt;()&lt;/span&gt;" style="text;whiteSpace=wrap;html=1;" vertex="1" parent="1">
          <mxGeometry x="280" y="280" width="125" height="30" as="geometry" />
        </mxCell>
        <mxCell id="QWjCUrICDvg6yizu2Og_-12" value="&lt;span style=&quot;color: rgb(0 , 0 , 0) ; font-family: &amp;#34;helvetica&amp;#34; ; font-size: 12px ; font-style: normal ; font-weight: 400 ; letter-spacing: normal ; text-align: center ; text-indent: 0px ; text-transform: none ; word-spacing: 0px ; background-color: rgb(248 , 249 , 250) ; display: inline ; float: none&quot;&gt;4:Заполнить информацию об автомобиле&lt;/span&gt;&lt;span style=&quot;text-align: center&quot;&gt;()&lt;/span&gt;" style="text;whiteSpace=wrap;html=1;" vertex="1" parent="1">
          <mxGeometry x="295" y="435" width="250" height="15" as="geometry" />
        </mxCell>
        <mxCell id="QWjCUrICDvg6yizu2Og_-13" value="&lt;span style=&quot;color: rgb(0 , 0 , 0) ; font-family: &amp;#34;helvetica&amp;#34; ; font-size: 12px ; font-style: normal ; font-weight: 400 ; letter-spacing: normal ; text-align: center ; text-indent: 0px ; text-transform: none ; word-spacing: 0px ; background-color: rgb(248 , 249 , 250) ; display: inline ; float: none&quot;&gt;18:Активировать автомойку&lt;/span&gt;&lt;span style=&quot;text-align: center&quot;&gt;()&lt;/span&gt;" style="text;whiteSpace=wrap;html=1;" vertex="1" parent="1">
          <mxGeometry x="785" y="255" width="169" height="30" as="geometry" />
        </mxCell>
        <mxCell id="QWjCUrICDvg6yizu2Og_-14" value="&lt;span style=&quot;color: rgb(0 , 0 , 0) ; font-family: &amp;#34;helvetica&amp;#34; ; font-size: 12px ; font-style: normal ; font-weight: 400 ; letter-spacing: normal ; text-align: center ; text-indent: 0px ; text-transform: none ; word-spacing: 0px ; background-color: rgb(248 , 249 , 250) ; display: inline ; float: none&quot;&gt;12:Выбрать автомойку на карте города&lt;/span&gt;&lt;span style=&quot;text-align: center&quot;&gt;()&lt;/span&gt;" style="text;whiteSpace=wrap;html=1;" vertex="1" parent="1">
          <mxGeometry x="665" y="130" width="230" height="30" as="geometry" />
        </mxCell>
        <mxCell id="QWjCUrICDvg6yizu2Og_-15" value="&lt;span style=&quot;color: rgb(0 , 0 , 0) ; font-family: &amp;#34;helvetica&amp;#34; ; font-size: 12px ; font-style: normal ; font-weight: 400 ; letter-spacing: normal ; text-align: center ; text-indent: 0px ; text-transform: none ; word-spacing: 0px ; background-color: rgb(248 , 249 , 250) ; display: inline ; float: none&quot;&gt;13:Выбрать тариф&lt;/span&gt;&lt;span style=&quot;text-align: center&quot;&gt;()&lt;/span&gt;" style="text;whiteSpace=wrap;html=1;" vertex="1" parent="1">
          <mxGeometry x="665" y="150" width="120" height="30" as="geometry" />
        </mxCell>
        <mxCell id="QWjCUrICDvg6yizu2Og_-16" value="&lt;span style=&quot;color: rgb(0 , 0 , 0) ; font-family: &amp;#34;helvetica&amp;#34; ; font-size: 12px ; font-style: normal ; font-weight: 400 ; letter-spacing: normal ; text-align: center ; text-indent: 0px ; text-transform: none ; word-spacing: 0px ; background-color: rgb(248 , 249 , 250) ; display: inline ; float: none&quot;&gt;14:Выбрать номер въезда&lt;/span&gt;&lt;span style=&quot;text-align: center&quot;&gt;()&lt;/span&gt;" style="text;whiteSpace=wrap;html=1;" vertex="1" parent="1">
          <mxGeometry x="665" y="170" width="160" height="30" as="geometry" />
        </mxCell>
        <mxCell id="QWjCUrICDvg6yizu2Og_-17" value="&lt;span style=&quot;color: rgb(0 , 0 , 0) ; font-family: &amp;#34;helvetica&amp;#34; ; font-size: 12px ; font-style: normal ; font-weight: 400 ; letter-spacing: normal ; text-align: center ; text-indent: 0px ; text-transform: none ; word-spacing: 0px ; background-color: rgb(248 , 249 , 250) ; display: inline ; float: none&quot;&gt;15:Воспользоваться бонусами&lt;/span&gt;&lt;span style=&quot;text-align: center&quot;&gt;()&lt;/span&gt;" style="text;whiteSpace=wrap;html=1;" vertex="1" parent="1">
          <mxGeometry x="665" y="190" width="190" height="30" as="geometry" />
        </mxCell>
        <mxCell id="QWjCUrICDvg6yizu2Og_-18" value="&lt;span style=&quot;color: rgb(0 , 0 , 0) ; font-family: &amp;#34;helvetica&amp;#34; ; font-size: 12px ; font-style: normal ; font-weight: 400 ; letter-spacing: normal ; text-align: center ; text-indent: 0px ; text-transform: none ; word-spacing: 0px ; background-color: rgb(248 , 249 , 250) ; display: inline ; float: none&quot;&gt;16:Ввести промокод&lt;/span&gt;&lt;span style=&quot;text-align: center&quot;&gt;()&lt;/span&gt;" style="text;whiteSpace=wrap;html=1;" vertex="1" parent="1">
          <mxGeometry x="665" y="205" width="130" height="30" as="geometry" />
        </mxCell>
        <mxCell id="QWjCUrICDvg6yizu2Og_-19" value="&lt;span style=&quot;color: rgb(0 , 0 , 0) ; font-family: &amp;#34;helvetica&amp;#34; ; font-size: 12px ; font-style: normal ; font-weight: 400 ; letter-spacing: normal ; text-align: center ; text-indent: 0px ; text-transform: none ; word-spacing: 0px ; background-color: rgb(248 , 249 , 250) ; display: inline ; float: none&quot;&gt;17:Выбрать акцию&lt;/span&gt;&lt;span style=&quot;text-align: center&quot;&gt;()&lt;/span&gt;" style="text;whiteSpace=wrap;html=1;" vertex="1" parent="1">
          <mxGeometry x="665" y="225" width="120" height="30" as="geometry" />
        </mxCell>
        <mxCell id="QWjCUrICDvg6yizu2Og_-20" value="19:Открыть сессию клиента&lt;span style=&quot;text-align: center&quot;&gt;()&lt;/span&gt;" style="text;whiteSpace=wrap;html=1;" vertex="1" parent="1">
          <mxGeometry x="980" y="370" width="160" height="30" as="geometry" />
        </mxCell>
        <mxCell id="QWjCUrICDvg6yizu2Og_-21" value="21:Оплатить автомойку&lt;span style=&quot;text-align: center&quot;&gt;()&lt;/span&gt;" style="text;whiteSpace=wrap;html=1;" vertex="1" parent="1">
          <mxGeometry x="780" y="265" width="148" height="30" as="geometry" />
        </mxCell>
        <mxCell id="QWjCUrICDvg6yizu2Og_-22" value="20:Закрыть сессию клиента&lt;span style=&quot;text-align: center&quot;&gt;()&lt;/span&gt;" style="text;whiteSpace=wrap;html=1;" vertex="1" parent="1">
          <mxGeometry x="784" y="360" width="170" height="30" as="geometry" />
        </mxCell>
        <mxCell id="QWjCUrICDvg6yizu2Og_-23" value="Регистрация" style="shape=umlBoundary;whiteSpace=wrap;html=1;" vertex="1" parent="1">
          <mxGeometry x="205" y="345" width="75" height="60" as="geometry" />
        </mxCell>
        <mxCell id="QWjCUrICDvg6yizu2Og_-24" value="Авторизация" style="shape=umlBoundary;whiteSpace=wrap;html=1;" vertex="1" parent="1">
          <mxGeometry x="225" y="165" width="75" height="60" as="geometry" />
        </mxCell>
        <mxCell id="QWjCUrICDvg6yizu2Og_-25" value="Запрос на открытие сессии" style="ellipse;shape=umlEntity;whiteSpace=wrap;html=1;" vertex="1" parent="1">
          <mxGeometry x="615" y="60" width="70" height="70" as="geometry" />
        </mxCell>
        <mxCell id="QWjCUrICDvg6yizu2Og_-26" style="rounded=0;orthogonalLoop=1;jettySize=auto;html=1;exitX=0.5;exitY=0.5;exitDx=0;exitDy=0;exitPerimeter=0;entryX=0.996;entryY=0.698;entryDx=0;entryDy=0;entryPerimeter=0;startArrow=none;startFill=0;endArrow=none;endFill=0;" edge="1" parent="1" source="QWjCUrICDvg6yizu2Og_-31" target="QWjCUrICDvg6yizu2Og_-24">
          <mxGeometry relative="1" as="geometry" />
        </mxCell>
        <mxCell id="QWjCUrICDvg6yizu2Og_-27" style="edgeStyle=none;rounded=0;orthogonalLoop=1;jettySize=auto;html=1;exitX=0.5;exitY=0.5;exitDx=0;exitDy=0;exitPerimeter=0;entryX=0.99;entryY=0.346;entryDx=0;entryDy=0;entryPerimeter=0;startArrow=none;startFill=0;endArrow=none;endFill=0;" edge="1" parent="1" source="QWjCUrICDvg6yizu2Og_-31" target="QWjCUrICDvg6yizu2Og_-23">
          <mxGeometry relative="1" as="geometry" />
        </mxCell>
        <mxCell id="QWjCUrICDvg6yizu2Og_-28" style="edgeStyle=none;rounded=0;orthogonalLoop=1;jettySize=auto;html=1;exitX=0.5;exitY=0.5;exitDx=0;exitDy=0;exitPerimeter=0;entryX=0;entryY=1;entryDx=0;entryDy=0;startArrow=none;startFill=0;endArrow=none;endFill=0;" edge="1" parent="1" source="QWjCUrICDvg6yizu2Og_-31" target="QWjCUrICDvg6yizu2Og_-25">
          <mxGeometry relative="1" as="geometry" />
        </mxCell>
        <mxCell id="QWjCUrICDvg6yizu2Og_-29" style="edgeStyle=none;rounded=0;orthogonalLoop=1;jettySize=auto;html=1;exitX=0.5;exitY=0.5;exitDx=0;exitDy=0;exitPerimeter=0;entryX=0;entryY=0.5;entryDx=0;entryDy=0;startArrow=none;startFill=0;endArrow=none;endFill=0;" edge="1" parent="1" source="QWjCUrICDvg6yizu2Og_-31" target="QWjCUrICDvg6yizu2Og_-33">
          <mxGeometry relative="1" as="geometry" />
        </mxCell>
        <mxCell id="QWjCUrICDvg6yizu2Og_-30" style="edgeStyle=none;rounded=0;orthogonalLoop=1;jettySize=auto;html=1;exitX=0.5;exitY=0.5;exitDx=0;exitDy=0;exitPerimeter=0;entryX=0.25;entryY=0;entryDx=0;entryDy=0;startArrow=none;startFill=0;endArrow=none;endFill=0;" edge="1" parent="1" source="QWjCUrICDvg6yizu2Og_-31" target="QWjCUrICDvg6yizu2Og_-34">
          <mxGeometry relative="1" as="geometry" />
        </mxCell>
        <mxCell id="QWjCUrICDvg6yizu2Og_-31" value="клиент" style="shape=umlActor;verticalLabelPosition=bottom;verticalAlign=top;html=1;outlineConnect=0;" vertex="1" parent="1">
          <mxGeometry x="555" y="280" width="30" height="60" as="geometry" />
        </mxCell>
        <mxCell id="QWjCUrICDvg6yizu2Og_-32" value="Оператор&amp;nbsp;&lt;br&gt;автомойки" style="ellipse;shape=umlControl;whiteSpace=wrap;html=1;" vertex="1" parent="1">
          <mxGeometry x="910" y="410" width="70" height="80" as="geometry" />
        </mxCell>
        <mxCell id="QWjCUrICDvg6yizu2Og_-33" value="сессия" style="ellipse;shape=umlEntity;whiteSpace=wrap;html=1;" vertex="1" parent="1">
          <mxGeometry x="945" y="260" width="70" height="70" as="geometry" />
        </mxCell>
        <mxCell id="QWjCUrICDvg6yizu2Og_-34" value="Сайт/приложение" style="rounded=0;whiteSpace=wrap;html=1;" vertex="1" parent="1">
          <mxGeometry x="535" y="570" width="120" height="60" as="geometry" />
        </mxCell>
        <mxCell id="QWjCUrICDvg6yizu2Og_-35" style="edgeStyle=orthogonalEdgeStyle;rounded=0;orthogonalLoop=1;jettySize=auto;html=1;exitX=0.585;exitY=1.083;exitDx=0;exitDy=0;exitPerimeter=0;entryX=0.585;entryY=0.015;entryDx=0;entryDy=0;entryPerimeter=0;" edge="1" parent="1" source="QWjCUrICDvg6yizu2Og_-24" target="QWjCUrICDvg6yizu2Og_-24">
          <mxGeometry relative="1" as="geometry">
            <mxPoint x="245.0000000000001" y="210.5200000000002" as="sourcePoint" />
            <mxPoint x="244.60000000000002" y="179.43000000000006" as="targetPoint" />
            <Array as="points">
              <mxPoint x="269" y="240" />
              <mxPoint x="195" y="240" />
              <mxPoint x="195" y="150" />
              <mxPoint x="269" y="150" />
            </Array>
          </mxGeometry>
        </mxCell>
        <mxCell id="QWjCUrICDvg6yizu2Og_-36" style="edgeStyle=none;rounded=0;orthogonalLoop=1;jettySize=auto;html=1;exitX=0.545;exitY=0.177;exitDx=0;exitDy=0;exitPerimeter=0;entryX=0.5;entryY=1;entryDx=0;entryDy=0;startArrow=none;startFill=0;endArrow=none;endFill=0;" edge="1" parent="1" source="QWjCUrICDvg6yizu2Og_-32" target="QWjCUrICDvg6yizu2Og_-33">
          <mxGeometry relative="1" as="geometry">
            <mxPoint x="580" y="320" as="sourcePoint" />
            <mxPoint x="955.0000000000059" y="305" as="targetPoint" />
          </mxGeometry>
        </mxCell>
        <mxCell id="QWjCUrICDvg6yizu2Og_-37" value="" style="endArrow=classic;html=1;rounded=0;" edge="1" parent="1">
          <mxGeometry width="50" height="50" relative="1" as="geometry">
            <mxPoint x="565" y="255" as="sourcePoint" />
            <mxPoint x="585" y="185" as="targetPoint" />
          </mxGeometry>
        </mxCell>
        <mxCell id="QWjCUrICDvg6yizu2Og_-38" value="" style="endArrow=classic;html=1;rounded=0;" edge="1" parent="1">
          <mxGeometry width="50" height="50" relative="1" as="geometry">
            <mxPoint x="625" y="295" as="sourcePoint" />
            <mxPoint x="710" y="290" as="targetPoint" />
          </mxGeometry>
        </mxCell>
        <mxCell id="QWjCUrICDvg6yizu2Og_-39" value="" style="endArrow=classic;html=1;rounded=0;" edge="1" parent="1">
          <mxGeometry width="50" height="50" relative="1" as="geometry">
            <mxPoint x="970" y="405" as="sourcePoint" />
            <mxPoint x="990" y="345" as="targetPoint" />
          </mxGeometry>
        </mxCell>
        <mxCell id="QWjCUrICDvg6yizu2Og_-40" value="" style="endArrow=classic;html=1;rounded=0;" edge="1" parent="1">
          <mxGeometry width="50" height="50" relative="1" as="geometry">
            <mxPoint x="960" y="340" as="sourcePoint" />
            <mxPoint x="940" y="400" as="targetPoint" />
          </mxGeometry>
        </mxCell>
        <mxCell id="QWjCUrICDvg6yizu2Og_-41" value="" style="endArrow=classic;html=1;rounded=0;" edge="1" parent="1">
          <mxGeometry width="50" height="50" relative="1" as="geometry">
            <mxPoint x="585" y="405" as="sourcePoint" />
            <mxPoint x="585" y="480.0000000000001" as="targetPoint" />
          </mxGeometry>
        </mxCell>
        <mxCell id="QWjCUrICDvg6yizu2Og_-42" value="" style="endArrow=classic;html=1;rounded=0;" edge="1" parent="1">
          <mxGeometry width="50" height="50" relative="1" as="geometry">
            <mxPoint x="485" y="315" as="sourcePoint" />
            <mxPoint x="395" y="335" as="targetPoint" />
          </mxGeometry>
        </mxCell>
        <mxCell id="QWjCUrICDvg6yizu2Og_-43" value="" style="endArrow=classic;html=1;rounded=0;" edge="1" parent="1">
          <mxGeometry width="50" height="50" relative="1" as="geometry">
            <mxPoint x="505" y="265" as="sourcePoint" />
            <mxPoint x="385" y="215" as="targetPoint" />
          </mxGeometry>
        </mxCell>
        <mxCell id="QWjCUrICDvg6yizu2Og_-44" value="" style="endArrow=none;dashed=1;html=1;rounded=0;entryX=0.5;entryY=0.5;entryDx=0;entryDy=0;entryPerimeter=0;" edge="1" parent="1">
          <mxGeometry width="50" height="50" relative="1" as="geometry">
            <mxPoint x="1242.75" y="2285" as="sourcePoint" />
            <mxPoint x="1247.25" y="815" as="targetPoint" />
          </mxGeometry>
        </mxCell>
        <mxCell id="QWjCUrICDvg6yizu2Og_-45" value="" style="endArrow=none;dashed=1;html=1;rounded=0;entryX=0.5;entryY=0.5;entryDx=0;entryDy=0;entryPerimeter=0;" edge="1" parent="1">
          <mxGeometry width="50" height="50" relative="1" as="geometry">
            <mxPoint x="1017.75" y="2285" as="sourcePoint" />
            <mxPoint x="1022.25" y="815" as="targetPoint" />
          </mxGeometry>
        </mxCell>
        <mxCell id="QWjCUrICDvg6yizu2Og_-46" value="" style="endArrow=none;dashed=1;html=1;rounded=0;entryX=0.5;entryY=0.5;entryDx=0;entryDy=0;entryPerimeter=0;" edge="1" parent="1">
          <mxGeometry width="50" height="50" relative="1" as="geometry">
            <mxPoint x="817.75" y="2295" as="sourcePoint" />
            <mxPoint x="822.25" y="825" as="targetPoint" />
          </mxGeometry>
        </mxCell>
        <mxCell id="QWjCUrICDvg6yizu2Og_-47" value="" style="endArrow=none;dashed=1;html=1;rounded=0;entryX=0.5;entryY=0.5;entryDx=0;entryDy=0;entryPerimeter=0;" edge="1" parent="1">
          <mxGeometry width="50" height="50" relative="1" as="geometry">
            <mxPoint x="592.7499999999998" y="2285" as="sourcePoint" />
            <mxPoint x="597.25" y="815" as="targetPoint" />
          </mxGeometry>
        </mxCell>
        <mxCell id="QWjCUrICDvg6yizu2Og_-48" value="" style="endArrow=none;dashed=1;html=1;rounded=0;entryX=0.5;entryY=0.5;entryDx=0;entryDy=0;entryPerimeter=0;" edge="1" parent="1">
          <mxGeometry width="50" height="50" relative="1" as="geometry">
            <mxPoint x="53" y="2270" as="sourcePoint" />
            <mxPoint x="57.5" y="800" as="targetPoint" />
          </mxGeometry>
        </mxCell>
        <mxCell id="QWjCUrICDvg6yizu2Og_-49" value="" style="endArrow=none;dashed=1;html=1;rounded=0;entryX=0.5;entryY=0.5;entryDx=0;entryDy=0;entryPerimeter=0;" edge="1" parent="1">
          <mxGeometry width="50" height="50" relative="1" as="geometry">
            <mxPoint x="412.75" y="2280" as="sourcePoint" />
            <mxPoint x="417.25" y="810" as="targetPoint" />
          </mxGeometry>
        </mxCell>
        <mxCell id="QWjCUrICDvg6yizu2Og_-50" value="" style="endArrow=none;dashed=1;html=1;rounded=0;entryX=0.5;entryY=0.5;entryDx=0;entryDy=0;entryPerimeter=0;" edge="1" parent="1">
          <mxGeometry width="50" height="50" relative="1" as="geometry">
            <mxPoint x="230.5" y="2280" as="sourcePoint" />
            <mxPoint x="235" y="810" as="targetPoint" />
          </mxGeometry>
        </mxCell>
        <mxCell id="QWjCUrICDvg6yizu2Og_-51" value="&lt;span style=&quot;text-align: center&quot;&gt;Ввести логин&lt;/span&gt;" style="text;whiteSpace=wrap;html=1;" vertex="1" parent="1">
          <mxGeometry x="70" y="1170" width="110" height="20" as="geometry" />
        </mxCell>
        <mxCell id="QWjCUrICDvg6yizu2Og_-52" value="&lt;span&gt;Создание аккаунта&lt;/span&gt;" style="text;html=1;align=center;verticalAlign=middle;resizable=0;points=[];autosize=1;strokeColor=none;fillColor=none;" vertex="1" parent="1">
          <mxGeometry x="70" y="1090" width="120" height="20" as="geometry" />
        </mxCell>
        <mxCell id="QWjCUrICDvg6yizu2Og_-53" value="Переход на сайт" style="text;html=1;align=center;verticalAlign=middle;resizable=0;points=[];autosize=1;strokeColor=none;fillColor=none;" vertex="1" parent="1">
          <mxGeometry x="85" y="880" width="110" height="20" as="geometry" />
        </mxCell>
        <mxCell id="QWjCUrICDvg6yizu2Og_-54" style="edgeStyle=orthogonalEdgeStyle;rounded=0;orthogonalLoop=1;jettySize=auto;html=1;exitX=1;exitY=0.5;exitDx=0;exitDy=0;entryX=-0.041;entryY=0.335;entryDx=0;entryDy=0;entryPerimeter=0;" edge="1" parent="1" source="QWjCUrICDvg6yizu2Og_-55" target="QWjCUrICDvg6yizu2Og_-59">
          <mxGeometry relative="1" as="geometry">
            <mxPoint x="215" y="900" as="targetPoint" />
          </mxGeometry>
        </mxCell>
        <mxCell id="QWjCUrICDvg6yizu2Og_-55" value="" style="rounded=0;whiteSpace=wrap;html=1;" vertex="1" parent="1">
          <mxGeometry x="45" y="870" width="20" height="60" as="geometry" />
        </mxCell>
        <mxCell id="QWjCUrICDvg6yizu2Og_-56" style="edgeStyle=orthogonalEdgeStyle;rounded=0;orthogonalLoop=1;jettySize=auto;html=1;exitX=1;exitY=0.25;exitDx=0;exitDy=0;entryX=-0.207;entryY=0.062;entryDx=0;entryDy=0;entryPerimeter=0;" edge="1" parent="1">
          <mxGeometry relative="1" as="geometry">
            <Array as="points">
              <mxPoint x="65" y="1112" />
            </Array>
            <mxPoint x="65" y="1120" as="sourcePoint" />
            <mxPoint x="400.8600000000001" y="1111.82" as="targetPoint" />
          </mxGeometry>
        </mxCell>
        <mxCell id="QWjCUrICDvg6yizu2Og_-57" style="edgeStyle=orthogonalEdgeStyle;rounded=0;orthogonalLoop=1;jettySize=auto;html=1;exitX=1;exitY=0.75;exitDx=0;exitDy=0;" edge="1" parent="1">
          <mxGeometry relative="1" as="geometry">
            <Array as="points">
              <mxPoint x="325" y="1199.71" />
              <mxPoint x="325" y="1199.71" />
            </Array>
            <mxPoint x="65" y="1199.7099999999998" as="sourcePoint" />
            <mxPoint x="575" y="1199.9999999999998" as="targetPoint" />
          </mxGeometry>
        </mxCell>
        <mxCell id="QWjCUrICDvg6yizu2Og_-58" value="" style="rounded=0;whiteSpace=wrap;html=1;" vertex="1" parent="1">
          <mxGeometry x="45" y="970" width="20" height="170" as="geometry" />
        </mxCell>
        <mxCell id="QWjCUrICDvg6yizu2Og_-59" value="" style="rounded=0;whiteSpace=wrap;html=1;" vertex="1" parent="1">
          <mxGeometry x="225" y="870" width="20" height="90" as="geometry" />
        </mxCell>
        <mxCell id="QWjCUrICDvg6yizu2Og_-60" style="edgeStyle=orthogonalEdgeStyle;rounded=0;orthogonalLoop=1;jettySize=auto;html=1;exitX=1.08;exitY=0.081;exitDx=0;exitDy=0;exitPerimeter=0;" edge="1" parent="1">
          <mxGeometry relative="1" as="geometry">
            <mxPoint x="426.5999999999999" y="1118.9099999999999" as="sourcePoint" />
            <mxPoint x="427" y="1149.9999999999998" as="targetPoint" />
            <Array as="points">
              <mxPoint x="475" y="1119" />
              <mxPoint x="475" y="1150" />
            </Array>
          </mxGeometry>
        </mxCell>
        <mxCell id="QWjCUrICDvg6yizu2Og_-61" value="Проверка &lt;br&gt;пользователя" style="text;html=1;align=center;verticalAlign=middle;resizable=0;points=[];autosize=1;strokeColor=none;fillColor=none;" vertex="1" parent="1">
          <mxGeometry x="425" y="1090" width="90" height="30" as="geometry" />
        </mxCell>
        <mxCell id="QWjCUrICDvg6yizu2Og_-62" style="edgeStyle=orthogonalEdgeStyle;rounded=0;orthogonalLoop=1;jettySize=auto;html=1;exitX=1.08;exitY=0.694;exitDx=0;exitDy=0;exitPerimeter=0;" edge="1" parent="1">
          <mxGeometry relative="1" as="geometry">
            <Array as="points">
              <mxPoint x="675" y="1256" />
              <mxPoint x="675" y="1290" />
            </Array>
            <mxPoint x="606.5999999999999" y="1256.34" as="sourcePoint" />
            <mxPoint x="615" y="1290" as="targetPoint" />
          </mxGeometry>
        </mxCell>
        <mxCell id="QWjCUrICDvg6yizu2Og_-63" value="Проверка&lt;br&gt;логина и пароля" style="text;html=1;align=center;verticalAlign=middle;resizable=0;points=[];autosize=1;strokeColor=none;fillColor=none;" vertex="1" parent="1">
          <mxGeometry x="605" y="1215" width="110" height="30" as="geometry" />
        </mxCell>
        <mxCell id="QWjCUrICDvg6yizu2Og_-64" value="" style="rounded=0;whiteSpace=wrap;html=1;" vertex="1" parent="1">
          <mxGeometry x="405" y="980" width="20" height="180" as="geometry" />
        </mxCell>
        <mxCell id="QWjCUrICDvg6yizu2Og_-65" style="edgeStyle=orthogonalEdgeStyle;rounded=0;orthogonalLoop=1;jettySize=auto;html=1;exitX=1;exitY=0.25;exitDx=0;exitDy=0;entryX=-0.207;entryY=0.062;entryDx=0;entryDy=0;entryPerimeter=0;" edge="1" parent="1">
          <mxGeometry relative="1" as="geometry">
            <Array as="points">
              <mxPoint x="65" y="997" />
            </Array>
            <mxPoint x="65" y="995" as="sourcePoint" />
            <mxPoint x="400.8600000000001" y="996.8199999999999" as="targetPoint" />
          </mxGeometry>
        </mxCell>
        <mxCell id="QWjCUrICDvg6yizu2Og_-66" value="Прикрепить необходимые документы" style="text;whiteSpace=wrap;html=1;" vertex="1" parent="1">
          <mxGeometry x="70" y="970" width="240" height="30" as="geometry" />
        </mxCell>
        <mxCell id="QWjCUrICDvg6yizu2Og_-67" style="edgeStyle=orthogonalEdgeStyle;rounded=0;orthogonalLoop=1;jettySize=auto;html=1;exitX=1;exitY=0.25;exitDx=0;exitDy=0;entryX=-0.207;entryY=0.062;entryDx=0;entryDy=0;entryPerimeter=0;" edge="1" parent="1">
          <mxGeometry relative="1" as="geometry">
            <Array as="points">
              <mxPoint x="65" y="1037" />
            </Array>
            <mxPoint x="65" y="1035" as="sourcePoint" />
            <mxPoint x="400.8600000000001" y="1036.82" as="targetPoint" />
          </mxGeometry>
        </mxCell>
        <mxCell id="QWjCUrICDvg6yizu2Og_-68" value="&lt;span style=&quot;color: rgb(0, 0, 0); font-family: helvetica; font-size: 12px; font-style: normal; font-weight: 400; letter-spacing: normal; text-align: center; text-indent: 0px; text-transform: none; word-spacing: 0px; background-color: rgb(248, 249, 250); display: inline; float: none;&quot;&gt;Заполнить информацию о себе&lt;/span&gt;" style="text;whiteSpace=wrap;html=1;" vertex="1" parent="1">
          <mxGeometry x="70" y="1015" width="200" height="30" as="geometry" />
        </mxCell>
        <mxCell id="QWjCUrICDvg6yizu2Og_-69" value="" style="rounded=0;whiteSpace=wrap;html=1;" vertex="1" parent="1">
          <mxGeometry x="45" y="1170" width="20" height="190" as="geometry" />
        </mxCell>
        <mxCell id="QWjCUrICDvg6yizu2Og_-70" style="edgeStyle=orthogonalEdgeStyle;rounded=0;orthogonalLoop=1;jettySize=auto;html=1;exitX=1;exitY=0.75;exitDx=0;exitDy=0;" edge="1" parent="1">
          <mxGeometry relative="1" as="geometry">
            <Array as="points">
              <mxPoint x="326.02" y="1250" />
              <mxPoint x="326.02" y="1250" />
            </Array>
            <mxPoint x="66.01999999999998" y="1249.9999999999998" as="sourcePoint" />
            <mxPoint x="575" y="1249.9999999999998" as="targetPoint" />
          </mxGeometry>
        </mxCell>
        <mxCell id="QWjCUrICDvg6yizu2Og_-71" value="&lt;span style=&quot;color: rgb(0, 0, 0); font-family: helvetica; font-size: 12px; font-style: normal; font-weight: 400; letter-spacing: normal; text-align: center; text-indent: 0px; text-transform: none; word-spacing: 0px; background-color: rgb(248, 249, 250); display: inline; float: none;&quot;&gt;Ввести пароль&lt;/span&gt;" style="text;whiteSpace=wrap;html=1;" vertex="1" parent="1">
          <mxGeometry x="70" y="1225" width="110" height="30" as="geometry" />
        </mxCell>
        <mxCell id="QWjCUrICDvg6yizu2Og_-72" style="edgeStyle=orthogonalEdgeStyle;rounded=0;orthogonalLoop=1;jettySize=auto;html=1;exitX=1;exitY=0.75;exitDx=0;exitDy=0;" edge="1" parent="1">
          <mxGeometry relative="1" as="geometry">
            <Array as="points">
              <mxPoint x="325" y="1300" />
              <mxPoint x="325" y="1300" />
            </Array>
            <mxPoint x="65" y="1299.9999999999998" as="sourcePoint" />
            <mxPoint x="575" y="1299.9999999999998" as="targetPoint" />
          </mxGeometry>
        </mxCell>
        <mxCell id="QWjCUrICDvg6yizu2Og_-73" value="&lt;span style=&quot;color: rgb(0, 0, 0); font-family: helvetica; font-size: 12px; font-style: normal; font-weight: 400; letter-spacing: normal; text-align: center; text-indent: 0px; text-transform: none; word-spacing: 0px; background-color: rgb(248, 249, 250); display: inline; float: none;&quot;&gt;Востановить аккаунт&lt;/span&gt;" style="text;whiteSpace=wrap;html=1;" vertex="1" parent="1">
          <mxGeometry x="70" y="1270" width="140" height="30" as="geometry" />
        </mxCell>
        <mxCell id="QWjCUrICDvg6yizu2Og_-74" value="" style="rounded=0;whiteSpace=wrap;html=1;" vertex="1" parent="1">
          <mxGeometry x="585" y="1180" width="20" height="190" as="geometry" />
        </mxCell>
        <mxCell id="QWjCUrICDvg6yizu2Og_-75" style="edgeStyle=orthogonalEdgeStyle;rounded=0;orthogonalLoop=1;jettySize=auto;html=1;exitX=1;exitY=0.75;exitDx=0;exitDy=0;" edge="1" parent="1">
          <mxGeometry relative="1" as="geometry">
            <Array as="points">
              <mxPoint x="575" y="1345" />
            </Array>
            <mxPoint x="65" y="1344.9999999999998" as="sourcePoint" />
            <mxPoint x="575" y="1344.9999999999998" as="targetPoint" />
          </mxGeometry>
        </mxCell>
        <mxCell id="QWjCUrICDvg6yizu2Og_-76" value="&lt;span style=&quot;color: rgb(0, 0, 0); font-family: helvetica; font-size: 12px; font-style: normal; font-weight: 400; letter-spacing: normal; text-align: center; text-indent: 0px; text-transform: none; word-spacing: 0px; background-color: rgb(248, 249, 250); display: inline; float: none;&quot;&gt;Войти в аккаунт&lt;/span&gt;" style="text;whiteSpace=wrap;html=1;" vertex="1" parent="1">
          <mxGeometry x="70" y="1315" width="110" height="30" as="geometry" />
        </mxCell>
        <mxCell id="QWjCUrICDvg6yizu2Og_-77" style="edgeStyle=orthogonalEdgeStyle;rounded=0;orthogonalLoop=1;jettySize=auto;html=1;exitX=1;exitY=0.25;exitDx=0;exitDy=0;entryX=-0.207;entryY=0.062;entryDx=0;entryDy=0;entryPerimeter=0;" edge="1" parent="1">
          <mxGeometry relative="1" as="geometry">
            <Array as="points">
              <mxPoint x="67.06999999999994" y="1071.09" />
            </Array>
            <mxPoint x="67.06999999999994" y="1069.09" as="sourcePoint" />
            <mxPoint x="402.93000000000006" y="1070.9099999999999" as="targetPoint" />
          </mxGeometry>
        </mxCell>
        <mxCell id="QWjCUrICDvg6yizu2Og_-78" value="&lt;span style=&quot;color: rgb(0, 0, 0); font-family: helvetica; font-size: 12px; font-style: normal; font-weight: 400; letter-spacing: normal; text-align: center; text-indent: 0px; text-transform: none; word-spacing: 0px; background-color: rgb(248, 249, 250); display: inline; float: none;&quot;&gt;Заполнить информацию об автомобиле&lt;/span&gt;" style="text;whiteSpace=wrap;html=1;" vertex="1" parent="1">
          <mxGeometry x="70" y="1045" width="250" height="30" as="geometry" />
        </mxCell>
        <mxCell id="QWjCUrICDvg6yizu2Og_-79" value="&lt;span style=&quot;color: rgb(0, 0, 0); font-family: helvetica; font-size: 12px; font-style: normal; font-weight: 400; letter-spacing: normal; text-align: center; text-indent: 0px; text-transform: none; word-spacing: 0px; background-color: rgb(248, 249, 250); display: inline; float: none;&quot;&gt;Активировать автомойку&lt;/span&gt;" style="text;whiteSpace=wrap;html=1;" vertex="1" parent="1">
          <mxGeometry x="95" y="1770" width="160" height="30" as="geometry" />
        </mxCell>
        <mxCell id="QWjCUrICDvg6yizu2Og_-80" value="&lt;span style=&quot;color: rgb(0, 0, 0); font-family: helvetica; font-size: 12px; font-style: normal; font-weight: 400; letter-spacing: normal; text-align: center; text-indent: 0px; text-transform: none; word-spacing: 0px; background-color: rgb(248, 249, 250); display: inline; float: none;&quot;&gt;Выбрать автомойку на карте города&lt;/span&gt;" style="text;whiteSpace=wrap;html=1;" vertex="1" parent="1">
          <mxGeometry x="95" y="1420" width="230" height="30" as="geometry" />
        </mxCell>
        <mxCell id="QWjCUrICDvg6yizu2Og_-81" value="&lt;span style=&quot;color: rgb(0, 0, 0); font-family: helvetica; font-size: 12px; font-style: normal; font-weight: 400; letter-spacing: normal; text-align: center; text-indent: 0px; text-transform: none; word-spacing: 0px; background-color: rgb(248, 249, 250); display: inline; float: none;&quot;&gt;Выбрать тариф&lt;/span&gt;" style="text;whiteSpace=wrap;html=1;" vertex="1" parent="1">
          <mxGeometry x="95" y="1470" width="110" height="30" as="geometry" />
        </mxCell>
        <mxCell id="QWjCUrICDvg6yizu2Og_-82" value="&lt;span style=&quot;color: rgb(0, 0, 0); font-family: helvetica; font-size: 12px; font-style: normal; font-weight: 400; letter-spacing: normal; text-align: center; text-indent: 0px; text-transform: none; word-spacing: 0px; background-color: rgb(248, 249, 250); display: inline; float: none;&quot;&gt;Выбрать номер въезда&lt;/span&gt;" style="text;whiteSpace=wrap;html=1;" vertex="1" parent="1">
          <mxGeometry x="95" y="1520" width="150" height="30" as="geometry" />
        </mxCell>
        <mxCell id="QWjCUrICDvg6yizu2Og_-83" value="&lt;span style=&quot;color: rgb(0, 0, 0); font-family: helvetica; font-size: 12px; font-style: normal; font-weight: 400; letter-spacing: normal; text-align: center; text-indent: 0px; text-transform: none; word-spacing: 0px; background-color: rgb(248, 249, 250); display: inline; float: none;&quot;&gt;Воспользоваться бонусами&lt;/span&gt;" style="text;whiteSpace=wrap;html=1;" vertex="1" parent="1">
          <mxGeometry x="95" y="1575" width="180" height="30" as="geometry" />
        </mxCell>
        <mxCell id="QWjCUrICDvg6yizu2Og_-84" value="&lt;span style=&quot;color: rgb(0, 0, 0); font-family: helvetica; font-size: 12px; font-style: normal; font-weight: 400; letter-spacing: normal; text-align: center; text-indent: 0px; text-transform: none; word-spacing: 0px; background-color: rgb(248, 249, 250); display: inline; float: none;&quot;&gt;Ввести промокод&lt;/span&gt;" style="text;whiteSpace=wrap;html=1;" vertex="1" parent="1">
          <mxGeometry x="95" y="1620" width="120" height="30" as="geometry" />
        </mxCell>
        <mxCell id="QWjCUrICDvg6yizu2Og_-85" value="&lt;span style=&quot;color: rgb(0, 0, 0); font-family: helvetica; font-size: 12px; font-style: normal; font-weight: 400; letter-spacing: normal; text-align: center; text-indent: 0px; text-transform: none; word-spacing: 0px; background-color: rgb(248, 249, 250); display: inline; float: none;&quot;&gt;Выбрать акцию&lt;/span&gt;" style="text;whiteSpace=wrap;html=1;" vertex="1" parent="1">
          <mxGeometry x="95" y="1670" width="110" height="30" as="geometry" />
        </mxCell>
        <mxCell id="QWjCUrICDvg6yizu2Og_-86" value="Открыть сессию клиента" style="text;whiteSpace=wrap;html=1;" vertex="1" parent="1">
          <mxGeometry x="1055" y="1830" width="160" height="30" as="geometry" />
        </mxCell>
        <mxCell id="QWjCUrICDvg6yizu2Og_-87" value="Оплатить автомойку" style="text;whiteSpace=wrap;html=1;" vertex="1" parent="1">
          <mxGeometry x="95" y="2090" width="140" height="30" as="geometry" />
        </mxCell>
        <mxCell id="QWjCUrICDvg6yizu2Og_-88" value="Закрыть сессию клиента" style="text;whiteSpace=wrap;html=1;" vertex="1" parent="1">
          <mxGeometry x="1065" y="2010" width="160" height="30" as="geometry" />
        </mxCell>
        <mxCell id="QWjCUrICDvg6yizu2Og_-89" value="" style="rounded=0;whiteSpace=wrap;html=1;" vertex="1" parent="1">
          <mxGeometry x="45" y="1410" width="20" height="420" as="geometry" />
        </mxCell>
        <mxCell id="QWjCUrICDvg6yizu2Og_-90" value="Регистрация" style="shape=umlBoundary;whiteSpace=wrap;html=1;" vertex="1" parent="1">
          <mxGeometry x="377.5" y="755" width="75" height="60" as="geometry" />
        </mxCell>
        <mxCell id="QWjCUrICDvg6yizu2Og_-91" value="Авторизация" style="shape=umlBoundary;whiteSpace=wrap;html=1;" vertex="1" parent="1">
          <mxGeometry x="555" y="755" width="75" height="60" as="geometry" />
        </mxCell>
        <mxCell id="QWjCUrICDvg6yizu2Og_-92" value="Запрос на открытие сессии" style="ellipse;shape=umlEntity;whiteSpace=wrap;html=1;" vertex="1" parent="1">
          <mxGeometry x="785" y="755" width="70" height="70" as="geometry" />
        </mxCell>
        <mxCell id="QWjCUrICDvg6yizu2Og_-93" value="клиент" style="shape=umlActor;verticalLabelPosition=bottom;verticalAlign=top;html=1;outlineConnect=0;" vertex="1" parent="1">
          <mxGeometry x="40" y="750" width="30" height="60" as="geometry" />
        </mxCell>
        <mxCell id="QWjCUrICDvg6yizu2Og_-94" value="Оператор&amp;nbsp;&lt;br&gt;автомойки" style="ellipse;shape=umlControl;whiteSpace=wrap;html=1;" vertex="1" parent="1">
          <mxGeometry x="1210" y="750" width="70" height="80" as="geometry" />
        </mxCell>
        <mxCell id="QWjCUrICDvg6yizu2Og_-95" value="" style="rounded=0;whiteSpace=wrap;html=1;" vertex="1" parent="1">
          <mxGeometry x="810" y="1370" width="20" height="360" as="geometry" />
        </mxCell>
        <mxCell id="QWjCUrICDvg6yizu2Og_-96" value="" style="rounded=0;whiteSpace=wrap;html=1;" vertex="1" parent="1">
          <mxGeometry x="45" y="2000" width="20" height="160" as="geometry" />
        </mxCell>
        <mxCell id="QWjCUrICDvg6yizu2Og_-97" value="" style="rounded=0;whiteSpace=wrap;html=1;" vertex="1" parent="1">
          <mxGeometry x="1010" y="1730" width="20" height="160" as="geometry" />
        </mxCell>
        <mxCell id="QWjCUrICDvg6yizu2Og_-98" value="сессия" style="ellipse;shape=umlEntity;whiteSpace=wrap;html=1;" vertex="1" parent="1">
          <mxGeometry x="985" y="755" width="70" height="70" as="geometry" />
        </mxCell>
        <mxCell id="QWjCUrICDvg6yizu2Og_-99" value="" style="rounded=0;whiteSpace=wrap;html=1;" vertex="1" parent="1">
          <mxGeometry x="1235" y="1810" width="20" height="70" as="geometry" />
        </mxCell>
        <mxCell id="QWjCUrICDvg6yizu2Og_-100" value="" style="rounded=0;whiteSpace=wrap;html=1;" vertex="1" parent="1">
          <mxGeometry x="1235" y="1940" width="20" height="160" as="geometry" />
        </mxCell>
        <mxCell id="QWjCUrICDvg6yizu2Og_-101" style="edgeStyle=orthogonalEdgeStyle;rounded=0;orthogonalLoop=1;jettySize=auto;html=1;exitX=1;exitY=0.75;exitDx=0;exitDy=0;" edge="1" parent="1">
          <mxGeometry relative="1" as="geometry">
            <Array as="points">
              <mxPoint x="575" y="1450" />
            </Array>
            <mxPoint x="65" y="1449.9999999999998" as="sourcePoint" />
            <mxPoint x="805" y="1450" as="targetPoint" />
          </mxGeometry>
        </mxCell>
        <mxCell id="QWjCUrICDvg6yizu2Og_-102" style="edgeStyle=orthogonalEdgeStyle;rounded=0;orthogonalLoop=1;jettySize=auto;html=1;exitX=1;exitY=0.75;exitDx=0;exitDy=0;" edge="1" parent="1">
          <mxGeometry relative="1" as="geometry">
            <Array as="points">
              <mxPoint x="575" y="1490" />
            </Array>
            <mxPoint x="65" y="1489.9999999999998" as="sourcePoint" />
            <mxPoint x="805" y="1490" as="targetPoint" />
          </mxGeometry>
        </mxCell>
        <mxCell id="QWjCUrICDvg6yizu2Og_-103" style="edgeStyle=orthogonalEdgeStyle;rounded=0;orthogonalLoop=1;jettySize=auto;html=1;exitX=1;exitY=0.75;exitDx=0;exitDy=0;" edge="1" parent="1">
          <mxGeometry relative="1" as="geometry">
            <Array as="points">
              <mxPoint x="575" y="1540" />
            </Array>
            <mxPoint x="65" y="1539.9999999999998" as="sourcePoint" />
            <mxPoint x="805" y="1540" as="targetPoint" />
          </mxGeometry>
        </mxCell>
        <mxCell id="QWjCUrICDvg6yizu2Og_-104" style="edgeStyle=orthogonalEdgeStyle;rounded=0;orthogonalLoop=1;jettySize=auto;html=1;exitX=1;exitY=0.75;exitDx=0;exitDy=0;" edge="1" parent="1">
          <mxGeometry relative="1" as="geometry">
            <Array as="points">
              <mxPoint x="575" y="1600" />
            </Array>
            <mxPoint x="65" y="1599.9999999999998" as="sourcePoint" />
            <mxPoint x="805" y="1600" as="targetPoint" />
          </mxGeometry>
        </mxCell>
        <mxCell id="QWjCUrICDvg6yizu2Og_-105" style="edgeStyle=orthogonalEdgeStyle;rounded=0;orthogonalLoop=1;jettySize=auto;html=1;exitX=1;exitY=0.75;exitDx=0;exitDy=0;" edge="1" parent="1">
          <mxGeometry relative="1" as="geometry">
            <Array as="points">
              <mxPoint x="575" y="1650" />
            </Array>
            <mxPoint x="65" y="1650" as="sourcePoint" />
            <mxPoint x="805" y="1650" as="targetPoint" />
          </mxGeometry>
        </mxCell>
        <mxCell id="QWjCUrICDvg6yizu2Og_-106" style="edgeStyle=orthogonalEdgeStyle;rounded=0;orthogonalLoop=1;jettySize=auto;html=1;exitX=1;exitY=0.75;exitDx=0;exitDy=0;" edge="1" parent="1">
          <mxGeometry relative="1" as="geometry">
            <Array as="points">
              <mxPoint x="575" y="1699.31" />
            </Array>
            <mxPoint x="65" y="1699.31" as="sourcePoint" />
            <mxPoint x="805" y="1699.31" as="targetPoint" />
          </mxGeometry>
        </mxCell>
        <mxCell id="QWjCUrICDvg6yizu2Og_-107" style="edgeStyle=orthogonalEdgeStyle;rounded=0;orthogonalLoop=1;jettySize=auto;html=1;exitX=1;exitY=0.75;exitDx=0;exitDy=0;" edge="1" parent="1">
          <mxGeometry relative="1" as="geometry">
            <Array as="points">
              <mxPoint x="575" y="1799.34" />
            </Array>
            <mxPoint x="65" y="1799.34" as="sourcePoint" />
            <mxPoint x="1005" y="1800" as="targetPoint" />
          </mxGeometry>
        </mxCell>
        <mxCell id="QWjCUrICDvg6yizu2Og_-108" value="" style="endArrow=classic;html=1;rounded=0;" edge="1" parent="1">
          <mxGeometry width="50" height="50" relative="1" as="geometry">
            <mxPoint x="1045" y="1860" as="sourcePoint" />
            <mxPoint x="1225" y="1860" as="targetPoint" />
          </mxGeometry>
        </mxCell>
        <mxCell id="QWjCUrICDvg6yizu2Og_-109" value="" style="endArrow=classic;html=1;rounded=0;" edge="1" parent="1">
          <mxGeometry width="50" height="50" relative="1" as="geometry">
            <mxPoint x="1225" y="2044.58" as="sourcePoint" />
            <mxPoint x="1045" y="2044.58" as="targetPoint" />
          </mxGeometry>
        </mxCell>
        <mxCell id="QWjCUrICDvg6yizu2Og_-110" value="" style="rounded=0;whiteSpace=wrap;html=1;" vertex="1" parent="1">
          <mxGeometry x="1010" y="1980" width="20" height="160" as="geometry" />
        </mxCell>
        <mxCell id="QWjCUrICDvg6yizu2Og_-111" style="edgeStyle=orthogonalEdgeStyle;rounded=0;orthogonalLoop=1;jettySize=auto;html=1;exitX=1;exitY=0.75;exitDx=0;exitDy=0;" edge="1" parent="1">
          <mxGeometry relative="1" as="geometry">
            <Array as="points">
              <mxPoint x="580" y="2120.01" />
            </Array>
            <mxPoint x="70" y="2120.01" as="sourcePoint" />
            <mxPoint x="1010" y="2120.67" as="targetPoint" />
          </mxGeometry>
        </mxCell>
        <mxCell id="QWjCUrICDvg6yizu2Og_-112" value="Сайт/приложение" style="rounded=0;whiteSpace=wrap;html=1;" vertex="1" parent="1">
          <mxGeometry x="175" y="750" width="120" height="60" as="geometry" />
        </mxCell>
      </root>
    </mxGraphModel>
  </diagram>
</mxfile>
